<svg id="Capa_1" enable-background="new 0 0 512.001 512.001" height="512" viewBox="0 0 512.001 512.001" width="512" xmlns="http://www.w3.org/2000/svg"><g><path clip-rule="evenodd" d="m255.997 272.016c-55.36 0-92.324-34.838-92.324-101.962 0-63.808 32.684-120.841 84.16-158.74 4.876-3.628 11.452-3.628 16.357 0 51.448 37.899 84.132 94.932 84.132 158.74-.001 67.124-36.965 101.962-92.325 101.962z" fill="#95d6a4" fill-rule="evenodd"/><path clip-rule="evenodd" d="m255.997 272.016c-4.309 0-8.504-.227-12.614-.652 48.303-4.989 79.738-39.401 79.738-101.31 0-61.965-30.841-117.524-79.738-155.396 1.474-1.134 2.948-2.268 4.45-3.345 4.876-3.628 11.452-3.628 16.357 0 51.448 37.899 84.132 94.932 84.132 158.74-.001 67.125-36.965 101.963-92.325 101.963z" fill="#78c2a4" fill-rule="evenodd"/><path d="m263.622 394.104c0 4.167-3.373 7.54-7.54 7.54s-7.54-3.373-7.54-7.54l-.085-122.088h-.028v-36.057l-39.657-39.685c-2.947-2.948-2.947-7.738 0-10.687 2.948-2.948 7.739-2.948 10.686 0l28.971 28.97v-41.953l-22.252-22.252c-2.948-2.948-2.948-7.738 0-10.715 2.948-2.948 7.738-2.948 10.687 0l11.565 11.594v-44.674c0-4.167 3.401-7.569 7.568-7.569 4.195 0 7.568 3.402 7.568 7.569v44.674l11.566-11.594c2.977-2.948 7.738-2.948 10.715 0 2.948 2.977 2.948 7.767 0 10.715l-22.28 22.252v42.01l29.027-29.027c2.947-2.948 7.738-2.948 10.686 0s2.948 7.739 0 10.687l-39.714 39.713v36.028h-.028z" fill="#5aa687"/><g clip-rule="evenodd" fill-rule="evenodd"><path d="m87.817 223.855c4.167-15.846 10.488-32.428 14.485-47.395.283-1.021.51-2.041.681-3.062 15.42 5.783 24.293 22.564 19.927 38.749-2.664 9.978-5.414 20.948-8.163 31.833-3.686.766-7.313 2.098-10.744 4.082-3.628 2.098-6.831 4.79-9.523 7.994l-.114-.198c-4.763-8.276-10.488-16.922-6.549-32.003z" fill="#e6a696"/><path d="m102.756 176.205c-3.997 14.882-8.135 31.947-12.273 47.735-3.94 15.024-.397 23.074 4.365 31.295l-21.26-31.777c-5.301-7.908-8.617-20.523-4.706-35.546 4.139-15.789 7.739-33.193 11.735-48.104.284-.992 1.22-1.927 2.297-2.211 15.335 5.755 24.179 22.451 19.842 38.608z" fill="#f5baab"/><path d="m426.841 223.742c-3.968-15.165-2.154-39.288-18.085-50.287-15.222 5.698-23.952 22.224-19.672 38.211 2.636 9.836 5.329 20.636 8.078 31.38 3.061 7.256 9.354 10.97 19.956 11.905 9.411-9.524 13.012-18.68 9.723-31.209z" fill="#e6a696"/><path d="m409.38 176.375c3.969 14.769 8.078 31.691 12.189 47.338 3.884 14.882.369 22.876-4.337 31.039l21.09-31.521c5.244-7.852 8.56-20.352 4.649-35.234-4.082-15.676-7.654-32.939-11.622-47.707-.256-.992-1.219-1.927-2.267-2.183-15.224 5.698-23.982 22.252-19.702 38.268z" fill="#f5baab"/><path d="m220.11 376.7-67.352-116.674c-9.751-16.895-31.549-22.734-48.472-12.983-3.572 2.069-6.747 4.734-9.411 7.909l-20.438-35.433c-4.734-8.164-8.249-16.157-4.338-31.04 4.082-15.647 8.221-32.598 12.161-47.367 4.563-17.008-5.612-34.639-22.62-39.203-17.037-4.564-35.038 5.527-39.233 22.649l-19.075 78.066c-2.807 11.452-1.22 22.847 5.158 33.902l81.866 141.817c8.589 14.882 10.402 29.82 6.208 45.553l-18.709 69.789c-1.814 6.831.51 9.723 7.483 9.723h103.606c7.058 0 10.97-3.316 12.699-9.723l24.151-90.17c2.326-8.759 1.164-18.425-3.684-26.815z" fill="#ffccbf"/><path d="m220.11 376.7-67.352-116.674c-4.252-7.342-10.771-12.586-18.17-15.393-3.345-1.275-7.029-2.041-10.602-2.239-6.774-.482-13.833 1.276-19.7 4.649-3.572 2.069-6.747 4.734-9.411 7.909-9.27 11.112-11.197 27.354-3.572 40.564l37.645 65.112c2.892 4.989 9.468 6.604 14.684 3.6 5.216-3.033 7.115-9.524 4.224-14.513l-31.323-54.198c-16.412-28.375 8.958-39.033 16.158-26.589l62.219 107.772c4.678 8.135 6.066 17.773 3.686 26.816l-12.048 44.929-12.104 45.241c-1.729 6.406-5.669 9.723-12.699 9.723h25.2c7.058 0 10.97-3.316 12.699-9.723l24.151-90.17c2.325-8.76 1.163-18.426-3.685-26.816z" fill="#fac2b4"/><path d="m291.884 376.7 67.352-116.674c9.779-16.895 31.577-22.734 48.472-12.983 3.572 2.069 6.747 4.734 9.411 7.909l20.467-35.433c4.705-8.164 8.22-16.157 4.337-31.04-4.11-15.647-8.221-32.598-12.189-47.367-4.564-17.008 5.642-34.639 22.649-39.203 17.008-4.564 35.036 5.527 39.204 22.649l19.076 78.066c2.807 11.452 1.248 22.847-5.13 33.902l-81.895 141.817c-8.589 14.882-10.402 29.82-6.18 45.553l18.681 69.789c1.503 5.613-.765 9.723-7.455 9.723h-103.635c-6.689 0-10.97-3.316-12.699-9.723l-24.151-90.17c-2.297-8.759-1.163-18.425 3.685-26.815z" fill="#ffccbf"/><path d="m448.101 103.383c1.39-.595 2.807-1.077 4.281-1.474 17.008-4.564 35.036 5.527 39.204 22.649l19.076 78.066c2.807 11.452 1.248 22.847-5.13 33.902l-81.895 141.817c-8.589 14.882-10.402 29.82-6.18 45.553l18.681 69.789c1.503 5.613-.765 9.723-7.455 9.723h-25.228c6.719 0 8.986-4.11 7.483-9.723l-18.708-69.789c-4.195-15.732-2.382-30.671 6.208-45.553l81.865-141.817c6.378-11.055 7.966-22.45 5.159-33.902l-19.078-78.066c-2.408-9.893-9.467-17.461-18.283-21.175z" fill="#fac2b4"/><path d="m383.046 360.627 37.645-65.112c7.653-13.209 5.726-29.452-3.572-40.564-2.664-3.175-5.839-5.839-9.411-7.909-9.553-5.499-20.664-6.038-30.302-2.41 1.729.652 3.43 1.474 5.102 2.41 3.572 2.069 6.747 4.734 9.383 7.909 9.298 11.112 11.226 27.354 3.601 40.564l-31.352 54.198c-2.862 4.989-.992 11.48 4.252 14.513 5.214 3.006 11.791 1.39 14.654-3.599z" fill="#fac2b4"/></g></g></svg>