<svg id="Capa_1" enable-background="new 0 0 512 512" height="512" viewBox="0 0 512 512" width="512" xmlns="http://www.w3.org/2000/svg"><g><path d="m99.778 408.957-17.149-29.707-17.149 29.707 17.149 12.132zm195.304 78.974c23.045-39.912 46.119-79.852 69.164-119.764l-53.914-93.373-49.379 34.895c-2.438 1.814-5.868 1.956-8.504.113l-49.548-35.036c-27.297 47.31-54.594 94.62-81.92 141.931 13.719 23.726 27.439 47.48 41.158 71.234zm-149.724 0c-12.784-22.11-25.511-44.221-38.295-66.331l-20.126 14.23c-2.438 1.814-5.868 1.956-8.504.113l-20.267-14.343c-12.756 22.11-25.511 44.22-38.267 66.331zm346.757 0c-18.482-32.003-36.935-64.006-55.388-95.981l-30.415 21.487c-2.438 1.814-5.868 1.956-8.504.085l-30.529-21.572c-18.481 31.975-36.935 64.006-55.416 95.981zm-437.52-273.147c4.025 0 7.285 3.26 7.285 7.285s-3.26 7.285-7.285 7.285h-13.919c-11.196 0-21.373-4.564-28.743-11.934-7.369-7.37-11.933-17.518-11.933-28.714 0-11.197 4.564-21.374 11.934-28.715 5.839-5.839 13.436-9.921 21.883-11.367 1.502-11.112 6.633-21.061 14.173-28.602 9.042-9.042 21.543-14.626 35.319-14.626 8.476 0 16.469 2.154 23.527 5.924 5.329 2.863 10.091 6.633 14.032 11.14.793-.284 1.587-.566 2.381-.822 3.005-.907 6.123-1.417 9.297-1.417 8.787 0 16.724 3.571 22.478 9.326 5.018 5.018 8.391 11.708 9.156 19.163 8.277 1.502 15.675 5.556 21.401 11.282 7.37 7.341 11.934 17.518 11.934 28.715s-4.564 21.345-11.934 28.715-17.546 11.934-28.714 11.934h-68.257c-4.025 0-7.285-3.26-7.285-7.285s3.26-7.285 7.285-7.285h68.257c7.143 0 13.663-2.92 18.397-7.653 4.733-4.734 7.682-11.254 7.682-18.425s-2.948-13.691-7.682-18.425c-6.605-6.604-11.226-6.661-19.389-7.738-3.968-.539-6.774-4.195-6.236-8.192.708-5.273-1.134-10.715-4.904-14.514-3.118-3.117-7.427-5.045-12.189-5.045-3.685 0-6.661.964-9.723 2.977-3.345 2.211-7.852 1.304-10.063-2.041-3.231-4.847-7.625-8.844-12.756-11.622-4.932-2.636-10.629-4.139-16.695-4.139-9.78 0-18.595 3.968-25.001 10.347-6.407 6.407-10.347 15.25-10.347 25.03 0 3.997-3.288 7.285-7.285 7.285-7.171 0-13.691 2.919-18.425 7.653-4.733 4.734-7.682 11.254-7.682 18.425s2.948 13.691 7.682 18.425 11.254 7.653 18.425 7.653h13.919zm21.741 146.353c1.984-3.487 6.435-4.677 9.893-2.693 1.191.68 2.098 1.644 2.721 2.75l23.641 40.961c33.76-58.45 67.492-116.872 101.252-175.323 1.984-3.459 6.406-4.677 9.893-2.665 3.458 1.984 4.677 6.435 2.665 9.893l-16.185 28.063 46.402 32.825 46.402-32.825-46.402-80.391-13.209 22.876c-1.984 3.487-6.434 4.677-9.892 2.693-3.487-2.013-4.677-6.435-2.693-9.921l18.51-32.06v-73.304-75.232c0-4.025 3.26-7.285 7.285-7.285h141.022c4.025 0 7.285 3.26 7.285 7.285v30.331h63.212c4.024 0 7.284 3.26 7.284 7.285 0 1.871-.708 3.571-1.871 4.875l-24.633 32.74 25.03 33.251c2.409 3.203 1.757 7.739-1.445 10.148-1.276.936-2.778 1.474-4.365 1.474h-140.997c-4.025 0-7.285-3.26-7.285-7.285v-30.302h-55.955v65.991c36.254 62.788 72.509 125.546 108.735 188.334l23.074-39.94c1.984-3.487 6.435-4.678 9.893-2.693 1.19.68 2.097 1.644 2.721 2.75 34.213 59.272 68.455 118.573 102.697 177.846 2.012 3.458.822 7.909-2.665 9.921-1.134.68-2.381.992-3.628.992-165.824 0-331.62 0-497.443 0-4.025 0-7.285-3.26-7.285-7.285 0-1.502.454-2.892 1.248-4.054 25.029-43.343 50.058-86.685 75.088-130.026zm298.256 18.142 27.411 19.389 27.411-19.389-27.411-47.48c-9.156 15.845-18.283 31.662-27.411 47.48zm-40.166-279.978v23.018h119.138l-19.445-25.852c-1.956-2.523-2.098-6.123-.085-8.816l19.53-25.965h-48.642v30.33c0 4.025-3.26 7.285-7.285 7.285zm-70.525-14.571h63.24 63.211v-60.661h-126.451z"/></g></svg>